# xmcd
#
# Track frame offsets: 
#        150
#        13068
#        26308
#        39851
#        52713
#        64496
#        78026
#        90971
#        104348
#        115686
#        127691
#        138888
#        150808
#        163678
#        174831
#        186576
#        197373
#        209076
#        219041
#        229458
#        240926
#        251158
#        261461
#        271966
#        282228
#
# Disc length: 3905 seconds
#
# Revision: 0
# Processed by: cddbd v1.4PL0 Copyright (c) Steve Scherf et al.
# Submitted via: ExactAudioCopy v0.90a11
#
DISCID=400f3f19
DTITLE=Robert Johnson - The Last of the Great Blues Singers
DYEAR=1900
DGENRE=
TTITLE0=Kind Hearted Woman
TTITLE1=I Believe I'll Dust my Broom
TTITLE2=Sweet Home Chicago
TTITLE3=Rambling on my Mind
TTITLE4=Come on in my Kitchen
TTITLE5=Terraplane Blues
TTITLE6=32-20 Blues
TTITLE7=They're Red Hot
TTITLE8=Dead Shrimp Blues
TTITLE9=Cross Road Blues
TTITLE10=Walking Blues
TTITLE11=Last Fair Deal Gone Down
TTITLE12=Preaching Blues (Up Jumped the Devil)
TTITLE13=Stones in my Passway
TTITLE14=I'm a Steady Rollin' Man
TTITLE15=From Four till Late
TTITLE16=Hell Hound on my Trail
TTITLE17=Little Queen of Spades
TTITLE18=Malted Milk
TTITLE19=Me and the Devil Blues
TTITLE20=Stop Breakin' Down Blues
TTITLE21=Honeymoon Blues
TTITLE22=Love in Vain
TTITLE23=Milkcow's Calf Blues
TTITLE24=Rambling on my Mind
EXTD=
EXTT0=
EXTT1=
EXTT2=
EXTT3=
EXTT4=
EXTT5=
EXTT6=
EXTT7=
EXTT8=
EXTT9=
EXTT10=
EXTT11=
EXTT12=
EXTT13=
EXTT14=
EXTT15=
EXTT16=
EXTT17=
EXTT18=
EXTT19=
EXTT20=
EXTT21=
EXTT22=
EXTT23=
EXTT24=
PLAYORDER=
